<svg width="64" height="64" viewBox="0 0 64 64" fill="none" xmlns="http://www.w3.org/2000/svg">
<path d="M32.0832 0.000523202C6.48362 -0.0666757 0.0677224 6.31722 0.000523459 31.9168C-0.0666754 57.5164 6.31402 63.9323 31.9136 63.9995C57.5132 64.0667 63.9323 57.6828 63.9995 32.0832C64.0667 6.48362 57.6828 0.0677221 32.0832 0.000523202ZM26.7489 49.5005C24.3262 49.5005 21.9579 48.7821 19.9435 47.4361C17.9291 46.0901 16.359 44.177 15.4319 41.9388C14.5048 39.7005 14.2622 37.2375 14.7349 34.8614C15.2075 32.4852 16.3741 30.3026 18.0873 28.5895C19.8004 26.8764 21.983 25.7097 24.3591 25.2371C26.7353 24.7644 29.1982 25.007 31.4365 25.9341C33.6748 26.8613 35.5879 28.4313 36.9339 30.4457C38.2799 32.4601 38.9983 34.8284 38.9983 37.2511C38.994 40.4986 37.7021 43.6118 35.4058 45.9081C33.1096 48.2044 29.9963 49.4963 26.7489 49.5005ZM48.9981 48.9981H42.9982V21.0018H14.9987V15.0019H48.9981V48.9981Z" fill="#DEC802"/>
<path d="M26.5 31C25.2144 31 23.9577 31.3812 22.8888 32.0954C21.8199 32.8097 20.9868 33.8248 20.4948 35.0126C20.0028 36.2003 19.8741 37.5072 20.1249 38.7681C20.3757 40.029 20.9948 41.1872 21.9038 42.0962C22.8128 43.0052 23.971 43.6243 25.2319 43.8751C26.4928 44.1259 27.7997 43.9972 28.9874 43.5052C30.1752 43.0132 31.1903 42.1801 31.9046 41.1112C32.6188 40.0423 33 38.7856 33 37.5C32.9982 35.7766 32.3129 34.1244 31.0942 32.9058C29.8756 31.6871 28.2234 31.0018 26.5 31Z" fill="#DEC802"/>
</svg>
