<svg width="64" height="64" viewBox="0 0 64 64" fill="none" xmlns="http://www.w3.org/2000/svg">
<g clip-path="url(#clip0_467_185)">
<path d="M2.66656 2.74097H61.3334V61.259H2.66656V2.74097Z" fill="#C6B200"/>
<path d="M2.66665 2.74092H61.3335V61.259H2.66665V2.74092ZM1.52588e-05 63.9936H64.0001V0.00646973H1.52588e-05V63.9936ZM45.28 30.8515C46.64 30.8515 47.12 30.8515 47.2533 30.7968C47.2533 30.6055 47.3066 30.4686 47.3066 30.3319C47.3066 28.8553 46.6133 26.1208 43.84 26.1208C41.2799 26.1208 40.1867 28.4177 39.92 30.8515H45.28ZM39.8668 34.5977C39.9201 38.2893 41.6268 40.7777 45.6801 40.7777C47.2534 40.7777 48.6133 40.5591 50.0268 39.9301C50.2135 39.8481 50.3469 39.8754 50.3469 40.1215V43.5396C50.3469 43.813 50.2669 43.9498 50.0803 44.0865C48.6669 44.7974 46.9068 45.1256 44.7202 45.1256C37.6803 45.1256 35.0402 39.7934 35.0402 33.8596C35.0402 27.4062 38.2936 22.1287 44.027 22.1287C49.8403 22.1287 51.867 27.1328 51.867 31.2072C51.867 32.5198 51.787 33.5862 51.6537 34.1058C51.6004 34.3245 51.5204 34.4067 51.307 34.4613C50.7736 34.5434 49.2003 34.6526 46.8536 34.6526H39.8668V34.5977ZM25.5735 31.8086C24.8268 28.7733 23.0134 22.1558 22.3467 18.9565H22.2934C21.7335 22.1558 20.2667 27.57 19.1734 31.8086H25.5735ZM18.08 36.2385L15.9734 44.4146C15.9201 44.6333 15.8401 44.7154 15.5733 44.7154H11.6533C11.3867 44.7154 11.3332 44.6334 11.3867 44.3053L18.96 17.1517C19.0933 16.6596 19.1733 16.2767 19.2266 14.9095C19.2266 14.7181 19.3066 14.6361 19.4399 14.6361H25.0399C25.2266 14.6361 25.3065 14.6908 25.36 14.9095L33.8399 44.36C33.8933 44.5786 33.8399 44.7154 33.6266 44.7154H29.2267C29.0134 44.7154 28.8799 44.6334 28.8266 44.4421L26.6399 36.2386H18.08V36.2385Z" fill="#F3DB00"/>
</g>
<defs>
<clipPath id="clip0_467_185">
<rect width="64" height="64" fill="white"/>
</clipPath>
</defs>
</svg>
