<svg width="64" height="64" viewBox="0 0 64 64" fill="none" xmlns="http://www.w3.org/2000/svg">
<path d="M5.3331 51.2L10.1331 56L5.3331 51.2ZM12.5331 36.8L14.9331 46.4L12.5331 36.8ZM14.9331 46.4L24.5331 48.8L14.9331 46.4ZM14.9331 46.4L7.7331 53.6L14.9331 46.4ZM43.7331 10.4L19.7331 34.4L20.9331 40.4L26.9331 41.6L50.9331 17.6L53.3331 8L43.7331 10.4Z" stroke="#6A6A6A" stroke-width="4.91667" stroke-linecap="round" stroke-linejoin="round"/>
<path d="M32.2669 36.8L37.0669 41.6L43.0669 40.4L44.2669 34.4L39.4669 29.6M58.6669 51.2L53.8669 56L58.6669 51.2ZM51.4669 36.8L49.0669 46.4L51.4669 36.8ZM49.0669 46.4L56.2669 53.6L49.0669 46.4ZM49.0669 46.4L44.2669 47.6L39.4669 48.8L49.0669 46.4ZM24.8002 29.3333L13.0669 17.6L10.6669 8L20.2669 10.4L32.0002 22.1333L24.8002 29.3333Z" stroke="#6A6A6A" stroke-width="4.91667" stroke-linecap="round" stroke-linejoin="round"/>
</svg>
