<svg width="64" height="64" viewBox="0 0 64 64" fill="none" xmlns="http://www.w3.org/2000/svg">
<path d="M35.0582 56.5253L39.5116 53.4107C45.205 49.425 49.6119 43.8647 52.192 37.4114C54.772 30.9581 55.4132 23.8923 54.0369 17.08C53.9689 16.7443 53.8246 16.4288 53.6151 16.1578C53.4057 15.8868 53.1366 15.6677 52.8289 15.5173L31.9996 5.33334L11.1729 15.5173C10.8646 15.6673 10.5951 15.8863 10.3851 16.1573C10.1752 16.4283 10.0305 16.7441 9.96222 17.08C8.58617 23.8926 9.22774 30.9586 11.8083 37.4119C14.3889 43.8652 18.7963 49.4253 24.4902 53.4107L28.9436 56.5253C29.8398 57.1524 30.9071 57.4886 32.0009 57.4886C33.0947 57.4886 34.162 57.1524 35.0582 56.5253V56.5253Z" stroke="#6A6A6A" stroke-width="5.33333" stroke-linecap="round" stroke-linejoin="round"/>
</svg>
