<svg width="64" height="64" viewBox="0 0 64 64" fill="none" xmlns="http://www.w3.org/2000/svg">
<g clip-path="url(#clip0_467_101)">
<path d="M2.6852 2.75305H61.3143V61.1671H2.6852V2.75305Z" fill="#C6B200"/>
<path d="M0.0195007 0.0385742V63.8982H63.9816V0.0385742H0.0195007ZM2.68459 2.7684H61.3137V61.1824H2.68596L2.68459 2.7684ZM22.2199 36.207L20.1152 44.3965C20.0604 44.6154 19.9823 44.6687 19.7151 44.6687H15.7963C15.5304 44.6687 15.477 44.5873 15.5304 44.2589L23.0996 17.1263C23.2325 16.6351 23.3133 16.2 23.3654 14.861C23.3654 14.6702 23.4449 14.5887 23.5791 14.5887H29.1751C29.3615 14.5887 29.441 14.6449 29.4944 14.861L37.9692 44.3137C38.024 44.5326 37.9692 44.6687 37.7555 44.6687H33.3297C33.1159 44.6687 32.983 44.6126 32.9295 44.4231L30.718 36.207H22.2199ZM29.6287 31.7859L26.458 18.9579H26.4032C25.8441 22.1523 24.43 27.5558 23.3119 31.7859H29.6287ZM41.6181 16.6056C41.6181 14.8582 42.8171 13.821 44.3367 13.821C45.9617 13.821 47.0552 14.9396 47.0552 16.6056C47.0552 18.4077 45.9097 19.3902 44.2832 19.3902C42.7376 19.3902 41.6181 18.4077 41.6181 16.6056ZM41.9374 22.8021C41.9374 22.5831 42.0169 22.4751 42.2567 22.4751H46.44C46.6537 22.4751 46.7592 22.5565 46.7592 22.8021V44.3389C46.7592 44.5579 46.7044 44.6659 46.44 44.6659H42.3087C42.0429 44.6659 41.9621 44.5298 41.9621 44.3109V22.8035L41.9374 22.8021Z" fill="#F3DB00"/>
</g>
<defs>
<clipPath id="clip0_467_101">
<rect width="64" height="64" fill="white"/>
</clipPath>
</defs>
</svg>
