<svg width="64" height="64" viewBox="0 0 64 64" fill="none" xmlns="http://www.w3.org/2000/svg">
<g clip-path="url(#clip0_467_41)">
<path d="M2.66699 2.74103H61.3338V61.2591H2.66699V2.74103Z" fill="#C6B200"/>
<path d="M2.66665 2.74073H61.3335V61.2588H2.66665V2.74073ZM1.52588e-05 63.9934H64.0001V0.00628662H1.52588e-05V63.9934ZM40.4801 26.5854C40.0801 26.3941 39.5467 26.312 38.9067 26.312C35.4667 26.312 33.0667 29.0192 33.0667 33.5311C33.0667 38.6719 35.52 40.75 38.5868 40.75C39.2534 40.75 39.9468 40.668 40.4801 40.422V26.5854ZM39.0667 22.1283C39.6267 22.1283 39.9468 22.1283 40.48 22.183V14.9092C40.48 14.7178 40.6133 14.6358 40.7465 14.6358H45.0666C45.2799 14.6358 45.3332 14.7178 45.3332 14.8545V40.4221C45.3332 41.1876 45.3332 42.1448 45.4666 43.1839C45.4666 43.3752 45.4132 43.4026 45.2266 43.5121C42.9332 44.6332 40.5067 45.1254 38.24 45.1254C32.3467 45.1254 28.1333 41.3792 28.1333 33.7499C28.1067 27.2144 32.32 22.1283 39.0667 22.1283ZM23.4135 44.3597C23.4135 44.633 23.3601 44.7152 23.0667 44.7152H18.9601C18.6934 44.7152 18.6134 44.5785 18.6134 44.3597V14.9912C18.6134 14.7178 18.7467 14.6357 18.9601 14.6357H23.0934C23.3067 14.6357 23.4135 14.7177 23.4135 14.9639V44.3597Z" fill="#F3DB00"/>
</g>
<defs>
<clipPath id="clip0_467_41">
<rect width="64" height="64" fill="white"/>
</clipPath>
</defs>
</svg>
