<svg width="64" height="64" viewBox="0 0 64 64" fill="none" xmlns="http://www.w3.org/2000/svg">
<path d="M58.1982 0H5.80175C2.5975 0 0 2.5975 0 5.80175V58.1982C0 61.4025 2.5975 64 5.80175 64H58.1982C61.4025 64 64 61.4025 64 58.1982V5.80175C64 2.5975 61.4025 0 58.1982 0Z" fill="#DEC802"/>
<path d="M21.3888 20.1363C23.5163 20.1363 25.2985 18.4688 25.2985 16.2833C25.2985 14.0993 23.5163 12.432 21.3888 12.432C19.2613 12.432 17.4795 14.0993 17.4795 16.2833C17.4795 18.4685 19.2613 20.1363 21.3888 20.1363ZM13.2823 40.7663C13.0525 41.7438 12.9373 42.7993 12.9373 43.6603C12.9373 47.053 14.777 49.3053 18.6868 49.3053C21.9293 49.3053 24.558 47.3798 26.4508 44.2705L25.295 48.9088H31.7338L35.4138 34.149C36.3338 30.412 38.116 28.4723 40.8185 28.4723C42.9458 28.4723 44.268 29.7953 44.268 31.9793C44.268 32.612 44.2105 33.3013 43.9805 34.049L42.083 40.8333C41.7955 41.8108 41.681 42.7888 41.681 43.708C41.681 46.9288 43.5778 49.2845 47.545 49.2845C50.9373 49.2845 53.6393 47.1008 55.1343 41.8685L52.6048 40.892C51.3398 44.3973 50.2473 45.031 49.3848 45.031C48.5223 45.031 48.0623 44.4565 48.0623 43.3073C48.0623 42.7898 48.1778 42.2155 48.3498 41.524L50.19 34.9145C50.6498 33.3625 50.8225 31.9863 50.8225 30.7218C50.8225 25.7773 47.8325 23.1968 44.2105 23.1968C40.8185 23.1968 37.3685 26.2565 35.644 29.4768L36.9085 23.6968H27.0775L25.6975 28.7878H30.2973L27.4648 40.1278C25.2405 45.0723 21.1548 45.1525 20.642 45.0378C19.8 44.8478 19.2615 44.528 19.2615 43.434C19.2615 42.8028 19.3765 41.896 19.664 40.8028L23.9765 23.6968H13.0525L11.6725 28.7878H16.2143L13.2825 40.7663" fill="white"/>
</svg>
