<svg width="64" height="64" viewBox="0 0 64 64" fill="none" xmlns="http://www.w3.org/2000/svg">
<g clip-path="url(#clip0_467_31)">
<path d="M2.66776 2.73572H61.345V61.2643H2.66776V2.73572Z" fill="#C6B200"/>
<path d="M2.66774 2.73576H61.345V61.2644H2.66774V2.73576ZM-3.05176e-05 64H64V0H-3.05176e-05V64ZM43.1583 26.2656C41.0549 26.2656 40.3366 27.3571 40.3366 28.2648C40.3366 29.2512 40.8112 29.9351 43.6457 31.4345C47.8269 33.5126 49.135 35.5117 49.135 38.4316C49.135 42.8115 45.8774 45.1656 41.4782 45.1656C39.1567 45.1656 37.1559 44.679 36.0144 43.9951C35.822 43.9161 35.7964 43.7715 35.7964 43.561V39.5231C35.7964 39.2469 35.9246 39.1681 36.1171 39.2996C37.7973 40.4175 39.721 40.9174 41.4783 40.9174C43.5816 40.9174 44.4666 40.0099 44.4666 38.7867C44.4666 37.8003 43.851 36.9322 41.1576 35.4986C37.374 33.6441 35.7964 31.7631 35.7964 28.6066C35.7964 25.0817 38.4898 22.1488 43.1584 22.1488C45.4542 22.1488 47.0573 22.5038 47.9296 22.9116C48.1475 23.0431 48.1989 23.2667 48.1989 23.464V27.2124C48.1989 27.436 48.0706 27.5676 47.8013 27.4887C46.6212 26.7259 44.8897 26.2656 43.1583 26.2656ZM20.226 29.5141C20.8416 29.5668 21.3162 29.5668 22.3807 29.5668C25.4973 29.5668 28.4344 28.4488 28.4344 24.0954C28.4344 20.6231 26.331 18.8738 22.7783 18.8738C21.7137 18.8738 20.7005 18.9265 20.213 18.9528L20.226 29.5141ZM15.4676 14.9939C15.4676 14.7966 15.8396 14.665 16.0577 14.665C17.7635 14.5861 20.303 14.5335 22.9322 14.5335C30.3197 14.5335 33.2054 18.6896 33.2054 23.9903C33.2054 30.9347 28.2933 33.9204 22.2652 33.9204C21.2521 33.9204 20.9057 33.8678 20.1874 33.8678V44.3635C20.1874 44.587 20.1105 44.6923 19.8667 44.6923H15.7882C15.5703 44.6923 15.4675 44.6134 15.4675 44.3635V14.9939H15.4676Z" fill="#F3DB00"/>
</g>
<defs>
<clipPath id="clip0_467_31">
<rect width="64" height="64" fill="white"/>
</clipPath>
</defs>
</svg>
