<svg width="64" height="64" viewBox="0 0 64 64" fill="none" xmlns="http://www.w3.org/2000/svg">
<g clip-path="url(#clip0_467_225)">
<path d="M2.66702 2.74103H61.3339V61.2591H2.66702V2.74103Z" fill="#C6B200"/>
<path d="M2.66665 2.74074H61.3335V61.2588H2.66665V2.74074ZM1.52588e-05 63.9934H64.0001V0.00628662H1.52588e-05V63.9934ZM38.4001 27.023C38.4001 26.6948 38.4001 25.9019 38.2668 24.3705C38.2668 24.1518 38.2934 24.0971 38.4801 24.015C40.1067 23.3314 43.9201 22.1283 48.2401 22.1283C48.4534 22.1283 48.56 22.183 48.56 22.4017V26.3667C48.56 26.5855 48.48 26.6401 48.2667 26.6401C46.5866 26.5581 44.1601 26.7768 43.2266 27.187V44.4143C43.2266 44.6329 43.1467 44.7424 42.9066 44.7424H38.72C38.5067 44.7424 38.4 44.6604 38.4 44.4143V27.023H38.4001ZM21.3334 29.5114C21.9467 29.5661 22.4267 29.5661 23.4935 29.5661C26.6135 29.5661 29.5468 28.445 29.5468 24.0972C29.5468 20.6244 27.4668 18.8742 23.8934 18.8742C22.8268 18.8742 21.8135 18.9289 21.3334 18.9563V29.5114ZM16.6134 14.9912C16.6134 14.7999 16.6667 14.663 16.88 14.663C18.5867 14.581 21.0933 14.5263 23.7334 14.5263C31.1201 14.5263 34.3467 18.6827 34.3467 24.015C34.3467 30.9606 29.4401 33.9412 23.4135 33.9412C22.4001 33.9412 22.0534 33.8865 21.3334 33.8865V44.387C21.3334 44.6057 21.2534 44.7151 21.0134 44.7151H16.9067C16.6934 44.7151 16.5866 44.6331 16.5866 44.387V14.9912H16.6134Z" fill="#F3DB00"/>
</g>
<defs>
<clipPath id="clip0_467_225">
<rect width="64" height="64" fill="white"/>
</clipPath>
</defs>
</svg>
