<svg width="64" height="64" viewBox="0 0 64 64" fill="none" xmlns="http://www.w3.org/2000/svg">
<path fill-rule="evenodd" clip-rule="evenodd" d="M9.31055 53.3594V23.0446C9.31055 10.3174 19.4689 0 32.0001 0C44.5312 0 54.6896 10.3174 54.6896 23.0446C54.6896 35.6044 44.7965 45.8174 32.4933 46.0839V46.0893C28.9518 46.0893 26.0811 43.1736 26.0811 39.5767C26.0811 36.0134 28.8987 33.1184 32.3947 33.0649V33.0562C37.66 32.8458 41.8651 28.4439 41.8651 23.0446C41.8651 17.5111 37.4483 13.0252 32.0001 13.0252C26.5518 13.0252 22.1351 17.5111 22.1351 23.0446V56.6097C22.1351 60.2066 19.2643 63.1223 15.7228 63.1223C14.4036 63.1244 13.1162 62.7114 12.0376 61.94C13.882 61.3925 15.2295 59.662 15.2295 57.6116C15.2295 55.1216 13.2419 53.1029 10.7903 53.1029C10.2714 53.1029 9.77341 53.1933 9.31055 53.3594ZM32.4933 44.0854C34.945 44.0854 36.9326 42.0667 36.9326 39.5767C36.9326 37.0867 34.945 35.0679 32.4933 35.0679C30.0417 35.0679 28.0541 37.0867 28.0541 39.5767C28.0541 42.0667 30.0417 44.0854 32.4933 44.0854Z" fill="#DEC802"/>
</svg>
