<svg width="64" height="64" viewBox="0 0 64 64" fill="none" xmlns="http://www.w3.org/2000/svg">
<path d="M26.6329 13.8857C28.697 11.7351 31.5706 10.4013 34.7487 10.4013C38.9734 10.4013 42.6594 12.7571 44.6222 16.2543C46.328 15.4921 48.2161 15.0682 50.2026 15.0682C57.8224 15.0682 64 21.2995 64 28.9859C64 36.6732 57.8224 42.9045 50.2026 42.9045C49.2727 42.9045 48.3638 42.8115 47.4849 42.6338C45.7564 45.7171 42.4624 47.8003 38.6817 47.8003C37.099 47.8003 35.602 47.4347 34.2692 46.7846C32.5169 50.9064 28.4344 53.7964 23.6764 53.7964C18.7214 53.7964 14.4985 50.6611 12.8775 46.2641C12.1691 46.4145 11.4352 46.4929 10.6822 46.4929C4.78268 46.4929 0 41.661 0 35.6995C0 31.7045 2.14883 28.2164 5.34154 26.3502C4.68422 24.8378 4.31863 23.1685 4.31863 21.4135C4.31863 14.5576 9.88445 9.00003 16.7494 9.00003C20.7799 9.00003 24.3619 10.9164 26.6329 13.8857Z" fill="#DEC802"/>
<path d="M9.26982 32.2302C9.22971 32.3351 9.28441 32.357 9.29717 32.3752C9.41751 32.4627 9.53968 32.5256 9.66275 32.5958C10.3155 32.9423 10.9318 33.0435 11.5764 33.0435C12.8892 33.0435 13.7042 32.3451 13.7042 31.221V31.1991C13.7042 30.1598 12.7843 29.7824 11.921 29.5098L11.8089 29.4733C11.1579 29.2618 10.5963 29.0795 10.5963 28.651V28.6282C10.5963 28.2617 10.9245 27.9918 11.4332 27.9918C11.9985 27.9918 12.6695 28.1796 13.1016 28.4185C13.1016 28.4185 13.2283 28.5006 13.2748 28.3775C13.3004 28.3118 13.5192 27.7229 13.542 27.6591C13.5666 27.5898 13.5228 27.5387 13.4781 27.5114C12.9849 27.2114 12.303 27.0063 11.5973 27.0063L11.4661 27.0072C10.2645 27.0072 9.42572 27.7329 9.42572 28.7731V28.795C9.42572 29.8918 10.3511 30.2473 11.2181 30.4953L11.3576 30.5382C11.9894 30.7323 12.5336 30.8992 12.5336 31.3441V31.366C12.5336 31.7726 12.1799 32.0753 11.6092 32.0753C11.3877 32.0753 10.6811 32.0707 9.91803 31.5884C9.82595 31.5346 9.77216 31.4954 9.70104 31.4526C9.66367 31.4289 9.56976 31.3878 9.52874 31.5118L9.26982 32.2302Z" fill="white"/>
<path d="M28.489 32.2302C28.4489 32.3351 28.5036 32.357 28.5163 32.3752C28.6367 32.4627 28.7588 32.5256 28.8819 32.5958C29.5347 32.9423 30.151 33.0435 30.7955 33.0435C32.1084 33.0435 32.9234 32.3451 32.9234 31.221V31.1991C32.9234 30.1598 32.0035 29.7824 31.1402 29.5098L31.028 29.4733C30.3771 29.2618 29.8155 29.0795 29.8155 28.651V28.6282C29.8155 28.2617 30.1437 27.9918 30.6524 27.9918C31.2176 27.9918 31.8886 28.1796 32.3208 28.4185C32.3208 28.4185 32.4475 28.5006 32.494 28.3775C32.5195 28.3118 32.7383 27.7229 32.7611 27.6591C32.7857 27.5898 32.742 27.5387 32.6973 27.5114C32.2041 27.2114 31.5221 27.0063 30.8165 27.0063L30.6852 27.0072C29.4836 27.0072 28.6449 27.7329 28.6449 28.7731V28.795C28.6449 29.8918 29.5702 30.2473 30.4372 30.4953L30.5767 30.5382C31.2085 30.7323 31.7537 30.8992 31.7537 31.3441V31.366C31.7537 31.7726 31.3991 32.0753 30.8284 32.0753C30.6068 32.0753 29.9003 32.0707 29.1372 31.5884C29.0451 31.5346 28.9904 31.4972 28.9211 31.4526C28.8974 31.4371 28.7862 31.3942 28.7479 31.5118L28.489 32.2302Z" fill="white"/>
<path d="M41.6093 30.0284C41.6093 30.6638 41.4908 31.1643 41.2574 31.5181C41.0268 31.8682 40.6776 32.0386 40.1908 32.0386C39.703 32.0386 39.3557 31.8691 39.1287 31.5181C38.8989 31.1652 38.7822 30.6638 38.7822 30.0284C38.7822 29.3938 38.8989 28.8942 39.1287 28.5442C39.3557 28.1977 39.703 28.0291 40.1908 28.0291C40.6776 28.0291 41.0268 28.1977 41.2583 28.5442C41.4908 28.8942 41.6093 29.3938 41.6093 30.0284ZM42.7052 28.8505C42.5976 28.4867 42.4299 28.1658 42.2065 27.8987C41.9831 27.6307 41.7005 27.4155 41.365 27.2587C41.0304 27.1028 40.6348 27.0235 40.1908 27.0235C39.7459 27.0235 39.3502 27.1028 39.0156 27.2587C38.6801 27.4155 38.3975 27.6307 38.1732 27.8987C37.9508 28.1667 37.783 28.4876 37.6745 28.8505C37.5679 29.2124 37.5141 29.6081 37.5141 30.0284C37.5141 30.4487 37.5679 30.8452 37.6745 31.2063C37.783 31.5691 37.9499 31.89 38.1741 32.1581C38.3975 32.4261 38.681 32.6403 39.0156 32.7926C39.3511 32.9448 39.7459 33.0223 40.1908 33.0223C40.6348 33.0223 41.0295 32.9448 41.365 32.7926C41.6996 32.6403 41.9831 32.4261 42.2065 32.1581C42.4299 31.8909 42.5976 31.57 42.7052 31.2063C42.8128 30.8443 42.8665 30.4478 42.8665 30.0284C42.8665 29.609 42.8128 29.2124 42.7052 28.8505Z" fill="white"/>
<path d="M51.7041 31.869C51.6676 31.7623 51.5646 31.8024 51.5646 31.8024C51.405 31.8635 51.2355 31.92 51.0549 31.9483C50.8717 31.9766 50.6702 31.9912 50.4541 31.9912C49.9235 31.9912 49.5024 31.8334 49.2006 31.5216C48.8979 31.2098 48.7283 30.7057 48.7302 30.0237C48.732 29.4029 48.8815 28.9361 49.1504 28.5806C49.4176 28.2268 49.8242 28.0454 50.3666 28.0454C50.8188 28.0454 51.1634 28.0974 51.5245 28.2113C51.5245 28.2113 51.6111 28.2487 51.6521 28.1357C51.7478 27.8694 51.8189 27.6789 51.921 27.3863C51.9502 27.3033 51.8791 27.2677 51.8536 27.2577C51.7114 27.2021 51.3759 27.1118 51.1224 27.0735C50.8854 27.0371 50.6082 27.0179 50.3001 27.0179C49.8397 27.0179 49.4294 27.0963 49.0784 27.2531C48.7283 27.409 48.4311 27.6242 48.1959 27.8922C47.9607 28.1603 47.782 28.4812 47.6626 28.844C47.5441 29.206 47.4839 29.6035 47.4839 30.0237C47.4839 30.9327 47.7291 31.6675 48.2132 32.2054C48.6982 32.7451 49.4267 33.0195 50.3767 33.0195C50.9382 33.0195 51.5144 32.9056 51.9283 32.7424C51.9283 32.7424 52.0077 32.7041 51.973 32.612L51.7041 31.869Z" fill="white"/>
<path d="M53.6215 29.4197C53.6734 29.0669 53.771 28.7733 53.9214 28.5445C54.1484 28.1971 54.4948 28.0066 54.9817 28.0066C55.4685 28.0066 55.7903 28.198 56.021 28.5445C56.1742 28.7733 56.2407 29.0796 56.2672 29.4197H53.6215ZM57.311 28.6438C57.218 28.2928 56.9874 27.9382 56.836 27.7759C56.5972 27.5188 56.3638 27.3392 56.1322 27.2389C55.8295 27.1095 55.4667 27.0238 55.0692 27.0238C54.6061 27.0238 54.1858 27.1013 53.8448 27.2617C53.5029 27.4222 53.2158 27.641 52.9906 27.9136C52.7654 28.1853 52.5958 28.5089 52.4882 28.8763C52.3797 29.2419 52.325 29.6403 52.325 30.0606C52.325 30.4882 52.3816 30.8866 52.4937 31.2449C52.6068 31.6059 52.7873 31.9241 53.0316 32.1875C53.275 32.4528 53.5886 32.6607 53.9642 32.8057C54.3371 32.9497 54.7902 33.0245 55.3108 33.0236C56.382 33.0199 56.9464 32.781 57.1788 32.6525C57.2199 32.6297 57.2591 32.5896 57.2098 32.4747L56.9673 31.7955C56.9309 31.6943 56.8278 31.7317 56.8278 31.7317C56.5625 31.8302 56.1851 32.007 55.3053 32.0052C54.7301 32.0043 54.3034 31.8347 54.0363 31.5694C53.7619 31.2977 53.6278 30.8984 53.6041 30.335L57.3138 30.3387C57.3138 30.3387 57.4113 30.3368 57.4213 30.242C57.425 30.2019 57.549 29.4798 57.311 28.6438Z" fill="white"/>
<path d="M23.9127 29.4197C23.9655 29.0669 24.0622 28.7733 24.2126 28.5445C24.4396 28.1971 24.786 28.0066 25.2729 28.0066C25.7597 28.0066 26.0815 28.198 26.3131 28.5445C26.4654 28.7733 26.5319 29.0796 26.5583 29.4197H23.9127ZM27.6013 28.6438C27.5083 28.2928 27.2786 27.9382 27.1272 27.7759C26.8884 27.5188 26.655 27.3392 26.4234 27.2389C26.1207 27.1095 25.7579 27.0238 25.3604 27.0238C24.8982 27.0238 24.477 27.1013 24.136 27.2617C23.7941 27.4222 23.507 27.641 23.2818 27.9136C23.0566 28.1853 22.887 28.5089 22.7794 28.8763C22.6719 29.2419 22.6162 29.6403 22.6162 30.0606C22.6162 30.4882 22.6728 30.8866 22.7849 31.2449C22.898 31.6059 23.0785 31.9241 23.3228 32.1875C23.5662 32.4528 23.8798 32.6607 24.2554 32.8057C24.6283 32.9497 25.0814 33.0245 25.602 33.0236C26.6732 33.0199 27.2376 32.781 27.47 32.6525C27.5111 32.6297 27.5503 32.5896 27.501 32.4747L27.2594 31.7955C27.2221 31.6943 27.119 31.7317 27.119 31.7317C26.8537 31.8302 26.4772 32.007 25.5956 32.0052C25.0213 32.0043 24.5946 31.8347 24.3275 31.5694C24.0531 31.2977 23.919 30.8984 23.8953 30.335L27.605 30.3387C27.605 30.3387 27.7025 30.3368 27.7125 30.242C27.7162 30.2019 27.8402 29.4798 27.6013 28.6438Z" fill="white"/>
<path d="M15.8943 31.8486C15.7494 31.7329 15.7293 31.7037 15.6801 31.6289C15.6072 31.515 15.5698 31.3527 15.5698 31.1466C15.5698 30.8203 15.6774 30.586 15.9007 30.4282C15.898 30.4292 16.2198 30.1502 16.9765 30.1602C17.508 30.1675 17.983 30.2459 17.983 30.2459V31.9325H17.9839C17.9839 31.9325 17.5126 32.0337 16.982 32.0656C16.2271 32.1112 15.8916 31.8477 15.8943 31.8486ZM17.3704 29.2421C17.2199 29.2312 17.0248 29.2248 16.7914 29.2248C16.4733 29.2248 16.166 29.2649 15.8779 29.3424C15.588 29.4199 15.3273 29.5412 15.103 29.7016C14.8778 29.863 14.6964 30.069 14.5651 30.3134C14.4338 30.5577 14.3673 30.8458 14.3673 31.1685C14.3673 31.4967 14.4238 31.7821 14.5369 32.0155C14.6499 32.2498 14.8131 32.4449 15.021 32.5953C15.227 32.7457 15.4814 32.856 15.7767 32.9226C16.0676 32.9892 16.3976 33.0229 16.7586 33.0229C17.1388 33.0229 17.518 32.9919 17.8855 32.929C18.2492 32.867 18.6959 32.7767 18.8199 32.7485C18.943 32.7193 19.0798 32.6819 19.0798 32.6819C19.1718 32.6591 19.1645 32.5607 19.1645 32.5607L19.1627 29.1683C19.1627 28.4244 18.964 27.8728 18.5729 27.5309C18.1836 27.19 17.6101 27.0176 16.8689 27.0176C16.5909 27.0176 16.1432 27.0559 15.8752 27.1097C15.8752 27.1097 15.0647 27.2665 14.731 27.5273C14.731 27.5273 14.6581 27.5729 14.6982 27.675L14.9608 28.3806C14.9936 28.4718 15.082 28.4408 15.082 28.4408C15.082 28.4408 15.1103 28.4298 15.1431 28.4107C15.857 28.0223 16.7595 28.0342 16.7595 28.0342C17.1607 28.0342 17.4688 28.1144 17.6767 28.2739C17.8791 28.4289 17.9821 28.6632 17.9821 29.1574V29.3142C17.663 29.2686 17.3704 29.2421 17.3704 29.2421Z" fill="white"/>
<path d="M47.2901 27.3307C47.3183 27.2468 47.2591 27.2067 47.2345 27.1976C47.1716 27.173 46.8561 27.1064 46.6127 27.0909C46.1468 27.0627 45.8879 27.1411 45.6564 27.245C45.4266 27.3489 45.1713 27.5167 45.0291 27.7072V27.2559C45.0291 27.193 44.9844 27.1429 44.9224 27.1429H43.9716C43.9096 27.1429 43.8649 27.193 43.8649 27.2559V32.7889C43.8649 32.8509 43.916 32.902 43.9779 32.902H44.9525C45.0145 32.902 45.0647 32.8509 45.0647 32.7889V30.0247C45.0647 29.6537 45.1057 29.2835 45.1877 29.051C45.268 28.8213 45.3774 28.6371 45.5123 28.5049C45.6481 28.3737 45.8022 28.2816 45.9709 28.2296C46.1432 28.1767 46.3337 28.1594 46.4687 28.1594C46.6628 28.1594 46.8762 28.2096 46.8762 28.2096C46.9473 28.2178 46.9874 28.174 47.0111 28.1093C47.0749 27.9397 47.2554 27.4319 47.2901 27.3307Z" fill="white"/>
<path d="M38.1421 24.7664C38.0236 24.7299 37.916 24.7053 37.7756 24.6788C37.6334 24.6533 37.4638 24.6406 37.2714 24.6406C36.6004 24.6406 36.0717 24.8302 35.7006 25.204C35.3314 25.5759 35.0807 26.1421 34.9548 26.8869L34.9093 27.1376H34.0669C34.0669 27.1376 33.9648 27.134 33.9429 27.2452L33.8052 28.0174C33.7952 28.0904 33.8271 28.1369 33.9256 28.1369H34.7452L33.9137 32.7791C33.849 33.1529 33.7742 33.4602 33.6913 33.6935C33.6101 33.9233 33.5308 34.0956 33.4323 34.2214C33.3375 34.3418 33.2482 34.4311 33.0932 34.4831C32.9656 34.5259 32.8179 34.546 32.6565 34.546C32.5672 34.546 32.4477 34.5314 32.3593 34.5131C32.2718 34.4958 32.2253 34.4767 32.1587 34.4484C32.1587 34.4484 32.063 34.412 32.0247 34.5077C31.9946 34.587 31.7758 35.1878 31.7494 35.2616C31.7238 35.3355 31.7603 35.3929 31.8068 35.4102C31.9162 35.4485 31.9974 35.4741 32.146 35.5096C32.352 35.5579 32.5261 35.5607 32.6893 35.5607C33.0303 35.5607 33.3421 35.5123 33.6001 35.4194C33.859 35.3255 34.0851 35.1623 34.2857 34.9416C34.5017 34.7028 34.6376 34.453 34.767 34.1111C34.8956 33.7738 35.0059 33.3544 35.0934 32.8657L35.9294 28.1369H37.1511C37.1511 28.1369 37.2541 28.1405 37.2751 28.0284L37.4136 27.2571C37.4228 27.1832 37.3918 27.1376 37.2924 27.1376H36.1063C36.1127 27.1112 36.1665 26.6937 36.3023 26.3007C36.3607 26.1339 36.4701 25.998 36.5621 25.9051C36.6533 25.8139 36.7582 25.7492 36.873 25.7118C36.9906 25.6735 37.1246 25.6553 37.2714 25.6553C37.3827 25.6553 37.493 25.668 37.5759 25.6853C37.6908 25.71 37.7355 25.7227 37.7656 25.7318C37.8868 25.7683 37.9032 25.7327 37.9269 25.6744L38.2105 24.8958C38.2396 24.812 38.1676 24.7764 38.1421 24.7664Z" fill="white"/>
<path d="M21.57 32.7892C21.57 32.8512 21.5253 32.9014 21.4633 32.9014H20.4796C20.4176 32.9014 20.3739 32.8512 20.3739 32.7892V24.8722C20.3739 24.8102 20.4176 24.7601 20.4796 24.7601H21.4633C21.5253 24.7601 21.57 24.8102 21.57 24.8722V32.7892Z" fill="white"/>
</svg>
