<svg width="64" height="64" viewBox="0 0 64 64" fill="none" xmlns="http://www.w3.org/2000/svg">
<path fill-rule="evenodd" clip-rule="evenodd" d="M23.4652 0C19.9274 0.00260958 17.0642 2.86793 17.0668 6.39869C17.0642 9.92946 19.93 12.7948 23.4678 12.7974H29.8689V6.4013C29.8715 2.87054 27.0057 0.00521916 23.4652 0C23.4678 0 23.4678 0 23.4652 0V0ZM23.4652 17.0667H6.40099C2.86316 17.0693 -0.00266869 19.9346 -5.38892e-05 23.4654C-0.0052835 26.9961 2.86054 29.8614 6.39838 29.8667H23.4652C27.003 29.8641 29.8689 26.9987 29.8663 23.468C29.8689 19.9346 27.003 17.0693 23.4652 17.0667Z" fill="#C6B200"/>
<path fill-rule="evenodd" clip-rule="evenodd" d="M64.0001 23.4654C64.0027 19.9346 61.1369 17.0693 57.599 17.0667C54.0612 17.0693 51.1954 19.9346 51.198 23.4654V29.8667H57.599C61.1369 29.8641 64.0027 26.9987 64.0001 23.4654ZM46.9332 23.4654V6.39869C46.9358 2.87054 44.0726 0.00521916 40.5348 0C36.9969 0.00260958 34.1311 2.86793 34.1337 6.39869V23.4654C34.1285 26.9961 36.9943 29.8614 40.5322 29.8667C44.07 29.8641 46.9358 26.9987 46.9332 23.4654Z" fill="#C6B200"/>
<path fill-rule="evenodd" clip-rule="evenodd" d="M40.5323 64C44.0702 63.9974 46.936 61.1321 46.9334 57.6013C46.936 54.0706 44.0702 51.2052 40.5323 51.2026H34.1313V57.6013C34.1287 61.1295 36.9945 63.9948 40.5323 64ZM40.5323 46.9307H57.5992C61.137 46.9281 64.0028 44.0628 64.0002 40.532C64.0055 37.0013 61.1396 34.136 57.6018 34.1307H40.5349C36.9971 34.1333 34.1313 36.9987 34.1339 40.5294C34.1313 44.0628 36.9945 46.9281 40.5323 46.9307Z" fill="#F3DB00"/>
<path fill-rule="evenodd" clip-rule="evenodd" d="M-5.92472e-05 40.532C-0.00267405 44.0628 2.86315 46.9281 6.40099 46.9307C9.93882 46.9281 12.8047 44.0628 12.802 40.532V34.1333H6.40099C2.86315 34.1359 -0.00267405 37.0012 -5.92472e-05 40.532ZM17.0668 40.532V57.5987C17.0616 61.1294 19.9274 63.9948 23.4652 64C27.0031 63.9974 29.8689 61.1321 29.8663 57.6013V40.5372C29.8715 37.0065 27.0057 34.1411 23.4678 34.1359C19.9274 34.1359 17.0642 37.0012 17.0668 40.532C17.0668 40.5346 17.0668 40.532 17.0668 40.532Z" fill="#FFEC45"/>
</svg>
