<svg width="64" height="64" viewBox="0 0 64 64" fill="none" xmlns="http://www.w3.org/2000/svg">
<path d="M2.69508 2.76263H61.3056V61.2375H2.69508V2.76263Z" fill="#C6B200"/>
<path d="M0 0V64H64V0H0ZM2.66667 2.73504H61.3333V61.265H2.66667V2.73504Z" fill="#F3DB00"/>
<path d="M46.4756 26.9006C46.0765 26.7092 45.5709 26.6271 44.9323 26.6271C41.5797 26.6271 39.3447 29.2802 39.3447 33.6838C39.3447 38.7164 41.6329 40.7404 44.613 40.7404C45.2516 40.7404 45.9434 40.6584 46.449 40.4396V26.9006H46.4756ZM34.5552 33.9026C34.5552 27.5297 38.5464 22.5518 45.092 22.5518C45.6507 22.5518 45.9434 22.5518 46.4756 22.6065V15.4951C46.4756 15.331 46.6086 15.2216 46.7417 15.2216H51.0255C51.2384 15.2216 51.2916 15.3037 51.2916 15.4404V40.4396C51.2916 41.178 51.2916 42.108 51.4247 43.12C51.4247 43.3114 51.4247 43.3388 51.265 43.4208C49.03 44.5149 46.6885 45.0072 44.4534 45.0072C38.6795 45.0072 34.5552 41.3421 34.5552 33.9026ZM25.4819 29.4717L32.9321 44.3234C33.0652 44.5423 32.9854 44.7611 32.7725 44.7611H28.1427C27.85 44.7611 27.717 44.679 27.584 44.4055C25.881 40.7951 24.1515 37.048 22.3688 33.1641H22.3156C20.7191 36.8292 18.963 40.8225 17.2601 44.4328C17.127 44.6517 16.994 44.7337 16.7811 44.7337H12.3642C12.0981 44.7337 12.0715 44.5149 12.2046 44.3508L19.4951 29.9366L12.444 15.6045C12.2844 15.3857 12.444 15.1943 12.6303 15.1943H17.2069C17.4729 15.1943 17.606 15.249 17.6858 15.4951C19.3621 19.1329 21.065 22.7159 22.6615 26.381H22.7147C24.258 22.7706 25.9609 19.1329 27.584 15.5498C27.717 15.331 27.7968 15.1943 28.0629 15.1943H32.3468C32.5596 15.1943 32.6395 15.3584 32.5064 15.6045L25.4819 29.4717Z" fill="#F3DB00"/>
</svg>
