<svg width="64" height="64" viewBox="0 0 64 64" fill="none" xmlns="http://www.w3.org/2000/svg">
<path d="M9.86538 41.1629L6.51753 42.3824L6.33937 52.3104L17.9279 48.09C13.9498 46.7618 11.0487 44.421 9.86538 41.1629Z" fill="#F3DB00"/>
<path d="M11.6178 30.6623L0 34.8933L6.51753 42.385L9.86538 41.1656C8.68473 37.9181 9.41333 34.2518 11.6178 30.6623Z" fill="#C6B200"/>
<path d="M31.165 16.3336C16.3723 21.7205 6.83396 32.8388 9.86537 41.1629L63.4336 21.6542C60.4022 13.33 45.9578 10.9468 31.165 16.3336Z" fill="#FFEC45"/>
<path d="M42.1313 46.4861C56.9241 41.0993 66.4783 30.0314 63.431 21.6568L9.86272 41.1629C12.9101 49.5401 27.3385 51.873 42.1313 46.4861Z" fill="#C6B200"/>
<path d="M63.4309 21.6542L9.86539 41.1629C10.9131 44.0472 14.9151 45.4681 20.5258 45.4681C25.9983 45.4681 33.0025 44.1188 40.3045 41.4598C55.0972 36.073 65.5024 27.3485 63.4309 21.6542Z" fill="#C6B200"/>
<path d="M52.7705 17.3516C47.3007 17.3516 40.2938 18.701 32.9919 21.3599C18.1991 26.7468 7.79392 35.4686 9.86538 41.1629L63.4336 21.6542C62.3833 18.7699 58.3839 17.3516 52.7705 17.3516Z" fill="#F3DB00"/>
<path d="M49.8109 52.8379C48.234 52.8379 45.9099 51.4196 42.8998 48.6202C39.3392 45.3091 35.2628 40.4577 31.415 34.9622C27.5699 29.4667 24.4108 23.9738 22.5175 19.4909C20.4567 14.6078 20.1615 11.6069 21.6427 10.5677C21.9857 10.3344 22.3926 10.2151 22.8074 10.2257C24.012 10.2257 26.3626 11.1191 30.705 15.3819L30.8007 15.4747L30.7874 15.6072C30.7582 15.9147 30.7316 16.2223 30.7077 16.5271L30.6598 17.1289L30.2343 16.7021C25.5543 12.0019 23.4961 11.4955 22.826 11.4955C22.6345 11.4955 22.483 11.5326 22.3739 11.6095C21.7304 12.0602 21.6879 14.2658 23.6875 18.9979C25.5463 23.3985 28.6601 28.8092 32.4547 34.2332C36.252 39.6598 40.2672 44.4369 43.7667 47.6897C47.5373 51.197 49.2365 51.576 49.7923 51.576C49.9837 51.576 50.1379 51.5363 50.2549 51.4541C50.933 50.9796 50.933 48.6175 48.7047 43.5223L48.601 43.289L48.8243 43.1671C49.0477 43.0451 49.2658 42.9258 49.4678 42.8092L49.7364 42.6581L49.8614 42.9391C51.4409 46.5497 52.9194 51.1386 50.9809 52.496C50.6379 52.7292 50.2284 52.8485 49.8109 52.8379ZM49.8109 52.2812V52.5596V52.2812Z" fill="#C6B200"/>
<path d="M42.4903 46.3323L42.469 46.6081C42.0941 51.2208 41.1102 56.7667 38.5415 56.992C38.4883 56.9973 38.4351 56.9973 38.3846 56.9973C36.6402 56.9973 34.9889 54.5054 33.4811 49.5931C32.0505 44.9432 30.9417 38.7028 30.3593 32.0196C29.7743 25.3364 29.7823 18.9979 30.3832 14.1704C31.0374 8.9108 32.2819 6.16436 34.0848 6.0053C34.1379 6 34.1938 5.99734 34.247 5.99734C35.5127 5.99734 37.4193 7.42624 39.3711 14.0803L38.0974 14.3241C37.4459 12.1026 36.7359 10.2946 36.0312 9.04865C35.3798 7.90076 34.7442 7.26718 34.247 7.26718C34.231 7.26718 34.2151 7.26718 34.1964 7.26983C33.4147 7.33875 32.2765 9.22627 31.6437 14.3268C31.0533 19.0668 31.0454 25.3125 31.6224 31.9082C32.1994 38.5066 33.2897 44.6543 34.6937 49.2193C35.3212 51.2632 36.01 52.9492 36.688 54.0918C37.3103 55.1469 37.9139 55.7275 38.3846 55.7275C38.4005 55.7275 38.4165 55.7275 38.4324 55.7248C39.1797 55.6612 40.589 53.6942 41.182 46.7777L42.4903 46.3323Z" fill="#C6B200"/>
</svg>
